<svg xmlns="http://www.w3.org/2000/svg" xmlns:xlink="http://www.w3.org/1999/xlink" id="Layer_1" x="0" y="0" version="1.1" viewBox="0 0 473.931 473.931" xml:space="preserve" style="enable-background:new 0 0 473.931 473.931"><circle style="fill:#ffc10e" cx="236.966" cy="236.966" r="236.966"/><g><circle style="fill:#333" cx="346.15" cy="335.711" r="25.762"/><path style="fill:#333" d="M243.499,112.908c1.684,31.251,23.992,53.56,55.243,55.247c31.184,1.68,53.698-26.525,55.247-55.247 c0.651-12.063-18.061-12-18.709,0c-2.537,47.094-70.536,47.094-73.069,0C261.56,100.908,242.848,100.844,243.499,112.908 L243.499,112.908z"/><path style="fill:#333" d="M108.694,112.908c1.684,31.255,23.988,53.56,55.243,55.247c31.184,1.68,53.694-26.525,55.243-55.247 c0.651-12.063-18.061-12-18.709,0c-2.537,47.094-70.532,47.094-73.065,0C126.756,100.908,108.043,100.844,108.694,112.908 L108.694,112.908z"/></g></svg>