<svg xmlns="http://www.w3.org/2000/svg" xmlns:xlink="http://www.w3.org/1999/xlink" id="Layer_1" x="0" y="0" version="1.1" viewBox="0 0 473.931 473.931" xml:space="preserve" style="enable-background:new 0 0 473.931 473.931"><circle style="fill:#81c241" cx="236.966" cy="236.966" r="236.966"/><circle style="fill:#5e9a42" cx="236.966" cy="318.274" r="28.254"/><g><circle style="fill:#333" cx="164.937" cy="155.227" r="37.216"/><circle style="fill:#333" cx="305.664" cy="155.227" r="37.216"/></g><g><path style="fill:#67af45" d="M203.907,277.758c0,44.617-36.183,80.815-80.807,80.815c-44.617,0-80.8-36.198-80.8-80.815 c0-44.624,36.183-80.807,80.8-80.807C167.724,196.955,203.907,233.134,203.907,277.758z"/><path style="fill:#67af45" d="M432.054,277.758c0,44.617-36.183,80.815-80.807,80.815c-44.632,0-80.815-36.198-80.815-80.815 c0-44.624,36.183-80.807,80.815-80.807C395.871,196.955,432.054,233.134,432.054,277.758z"/></g></svg>